<?xml version="1.0" encoding="utf-8"?>
<!-- Generator: Adobe Illustrator 21.0.2, SVG Export Plug-In . SVG Version: 6.00 Build 0)  -->
<svg version="1.1" id="Layer_1" xmlns="http://www.w3.org/2000/svg" xmlns:xlink="http://www.w3.org/1999/xlink" x="0px" y="0px"
	 viewBox="0 0 398.8 146.7" style="enable-background:new 0 0 398.8 146.7; fill:#ffffff" xml:space="preserve">
<g>
	<path d="M223.3,32.2c-2.5-1.8-6.2-2.7-11.2-2.7h-16.3v0.9c4.9,0.4,5.6,1,5.6,7.1v11c-0.2,1.5-1.2,4.9-5.8,4.9h-5
		c-4.6,0-5.6-3.5-5.8-5c0-0.5,0-1.1,0-1.8V9.3c-2.3,1-4.6,2.2-6.6,3.7c1.6,0.8,1.8,3.6,1.8,4.5v29.4c0,5.9-0.7,6.7-6.3,7.2l0,0V55
		l0,0h5.4h1.2h21v26.5c2.2-0.1,4.4-0.4,6.4-0.9c-1.4-0.8-1.7-3.1-1.7-4.2V55h6.1h0.1c0.7,0,1.6-0.1,2.4-0.2
		c6.2-0.8,12.9-4.7,12.9-13.5C227.5,37.4,226.1,34.3,223.3,32.2z M212.4,53.5H210c-3.4,0-3.9-2.2-3.9-3.1V35.2c0-1.9,0.2-3,1-3.6
		c0.5-0.6,2.1-0.9,4.1-0.9c5.2,0,10.8,2.9,10.8,11C222,49.9,217.1,53.2,212.4,53.5z"/>
	<path d="M15,138.6c-0.9,1-2.2,1.2-4.3,1.2c-1.6,0-2.9-0.1-3.7-0.5c-0.8-0.5-1-1.4-1-3.3v-14.6c0-3.2,0.4-3.5,3.3-3.8V117H0.1v0.6
		c3,0.2,3.3,0.6,3.3,3.8v14.8c0,3.2-0.4,3.6-3.4,3.8v0.6h16.4c0.3-1.2,1-4.2,1.2-5.4l-0.7-0.1C16.4,136.5,15.7,137.8,15,138.6z"/>
	<path d="M35.9,116.4c-8,0-12.3,6.5-12.3,12.6c0,6.9,5.1,12.1,11.8,12.1c7.2,0,12.2-5.2,12.2-12.7C47.7,120.6,41.6,116.4,35.9,116.4
		z M36.3,140.3c-5.4,0-9.3-5.2-9.3-12.3c0-7.4,4.1-10.7,8.1-10.7c4.6,0,9.2,3.8,9.2,12.2C44.3,137.4,40,140.3,36.3,140.3z"/>
	<path d="M72.1,117.6c2.3,0.1,3.4,0.5,3.6,2.5c0.2,1.3,0.3,3.2,0.3,6.2v9.3h-0.4l-0.1-0.1L60.1,117H55v0.6c1.7,0.2,2.5,0.5,3.2,1.4
		s0.8,1.1,0.8,3.9v8.2c0,2.8-0.1,4.8-0.2,6.4c-0.2,2-1.3,2.5-3.3,2.6v0.6h8.4v-0.6c-2.3-0.2-3.4-0.6-3.6-2.7
		c-0.2-1.4-0.2-3.5-0.2-6.3v-9.5h0.4l0.1,0.1L76.3,141h0.8v-14.7c0-3.2,0.1-5.1,0.2-6.3c0.2-1.8,1.3-2.2,3.1-2.4V117h-8.3V117.6z"/>
	<path d="M98.8,117H88.6v0.6c2.8,0.2,3.1,0.5,3.1,3.8v14.9c0,3.1-0.3,3.6-3.5,3.8v0.6h8.5c4.7,0,8.2-1,10.9-3
		c2.9-2.2,4.5-5.6,4.5-9.7c0-3.1-1.1-5.9-3.1-7.8C106.9,117.9,103.6,117,98.8,117z M98.6,139.7c-2.6,0-4.1-0.6-4.1-3.7v-15.4
		c0-1.5,0.1-2,0.6-2.3c0.5-0.4,1.9-0.5,3-0.5c2.6,0,4.8,0.5,6.4,1.6c2.9,1.7,4.5,4.9,4.5,9.1C109,133.6,106.3,139.7,98.6,139.7z"/>
	<path d="M132.1,116.4c-8,0-12.3,6.5-12.3,12.6c0,6.9,5.1,12.1,11.8,12.1c7.2,0,12.2-5.2,12.2-12.7
		C143.8,120.6,137.8,116.4,132.1,116.4z M132.4,140.3c-5.4,0-9.3-5.2-9.3-12.3c0-7.4,4.1-10.7,8.1-10.7c4.6,0,9.2,3.8,9.2,12.2
		C140.5,137.4,136.1,140.3,132.4,140.3z"/>
	<path d="M167.2,117.6c2.3,0.1,3.4,0.5,3.6,2.5c0.2,1.3,0.3,3.2,0.3,6.2v9.3h-0.4l-0.1-0.1L155.2,117h-5.1v0.6
		c1.7,0.2,2.5,0.5,3.2,1.4s0.8,1.1,0.8,3.9v8.2c0,2.8-0.1,4.8-0.2,6.4c-0.2,2-1.3,2.5-3.3,2.6v0.6h8.4v-0.6
		c-2.3-0.2-3.4-0.6-3.6-2.7c-0.1-1.4-0.2-3.5-0.2-6.3v-9.5h0.4l0.1,0.1l15.7,19.3h0.8v-14.7c0-3.2,0.1-5.1,0.2-6.3
		c0.2-1.8,1.3-2.2,3.1-2.4V117h-8.3V117.6z"/>
	<path d="M216.3,118.4c-1.4-1-3.4-1.5-6.1-1.5h-8.9v0.6c2.6,0.2,3,0.5,3,3.8v14.8c0,3.1-0.3,3.6-3.3,3.8v0.6h9.6v-0.6
		c-3.2-0.2-3.7-0.5-3.7-3.8V130l3,0.8c0.1,0,0.3,0,0.6,0c0.4,0,0.7,0,1-0.1c3.4-0.4,7-2.6,7-7.4
		C218.6,121.3,217.8,119.6,216.3,118.4z M209.9,129.8c-1.2,0-2.2-0.2-2.8-0.5l-0.1-0.1V120c0-1.2,0.1-1.6,0.5-1.9
		c0.3-0.3,1.1-0.5,2.2-0.5c3.6,0,5.8,2.2,5.8,5.9C215.5,129.4,211.2,129.8,209.9,129.8z"/>
	<path d="M245.9,138.6c-0.9-0.9-1.6-1.9-3-3.9c-1.1-1.7-2.7-4.2-3.3-5.4l-0.1-0.2l0.2-0.1c3-1.4,4.6-3.5,4.6-6.2
		c0-2-0.8-3.7-2.4-4.7c-1.3-0.9-3-1.2-5.8-1.2h-9v0.6c2.8,0.3,3.2,0.5,3.2,3.7v14.9c0,3.2-0.3,3.6-3.3,3.8v0.6h9.3v-0.6
		c-2.8-0.2-3.3-0.6-3.3-3.8V130h1.4c2,0,2.7,0.5,3.3,1.6c0.2,0.4,0.5,0.8,0.7,1.2c0.9,1.5,2,3.3,3,4.7c1.6,2.3,3,3.1,5.8,3.3
		c0.3,0,0.7,0,1.1,0l0.1-0.6C247.7,140.1,246.8,139.7,245.9,138.6z M234.9,129.3h-2v-9.4c0-1.1,0.1-1.6,0.5-1.8
		c0.4-0.3,1.1-0.4,2.1-0.4c3.5,0,5.6,2.1,5.6,5.7c0,2.1-0.7,3.7-2.1,4.8C238.1,129,236.9,129.3,234.9,129.3z"/>
	<path d="M266.9,116.4c-8,0-12.3,6.5-12.3,12.6c0,6.9,5.1,12.1,11.8,12.1c7.2,0,12.2-5.2,12.2-12.7
		C278.7,120.6,272.6,116.4,266.9,116.4z M267.3,140.3c-5.4,0-9.3-5.2-9.3-12.3c0-7.4,4.1-10.7,8.1-10.7c4.6,0,9.2,3.8,9.2,12.2
		C275.3,137.4,271,140.3,267.3,140.3z"/>
	<path d="M286.5,117.6c3,0.2,3.3,0.7,3.3,3.8V134c0,3-0.1,5.2-0.4,7.1c-0.4,2.3-1.6,3.9-3.5,4.9l0.3,0.7c1-0.3,2.1-1.1,3.2-2
		c2.3-2.2,3.1-4.5,3.1-9.4v-13.8c0-3.1,0.3-3.6,3.2-3.8v-0.6h-9.2V117.6z"/>
	<path d="M320.1,138.4c-0.9,1-2,1.3-4.8,1.3c-1.9,0-3.2,0-4-0.5c-0.7-0.5-1-1.3-1-3.2v-7.1h3.7c3.2,0,3.7,0.3,4.1,2.9h0.7v-6.7h-0.7
		c-0.4,2.4-0.8,2.8-4.2,2.8h-3.7v-8.7c0-1.2,0.2-1.4,1.4-1.4h2.8c2.7,0,3.8,0.3,4.4,1.2c0.5,0.7,0.8,1.6,1.2,3l0.7-0.1
		c0-0.5-0.1-1-0.1-1.6c-0.1-1.4-0.2-2.7-0.2-3.4h-16.1v0.6c2.8,0.2,3.2,0.5,3.2,3.9v14.7c0,3.1-0.4,3.5-3.7,3.8v0.6h17.5
		c0.3-1.2,1-4.2,1.2-5.5l-0.7-0.1C321.5,136.4,320.8,137.7,320.1,138.4z"/>
	<path d="M343.1,140.3c-5.8,0-9.9-4.9-9.9-11.9c0-5.3,3-11.1,9.7-11.1c4.1,0,6.3,1.6,7.4,5.5l0.7-0.2c-0.2-1.7-0.4-3.2-0.7-5v-0.3
		c-0.2,0-0.5-0.1-0.8-0.2c-1.3-0.3-3.3-0.8-5.6-0.8c-8.3,0-14.1,5.2-14.1,12.7c0,5.8,4.1,12.1,13.1,12.1c2.4,0,5.1-0.6,6.4-0.9
		l0.2-0.1c0.7-1.3,1.5-3.9,2-5.4l-0.7-0.2C349.1,138,347.1,140.3,343.1,140.3z"/>
	<path d="M376.8,116c-0.6,0.7-0.9,0.9-2,0.9h-14.6c-1.1,0-1.6-0.1-2.2-0.9h-0.4c-0.1,2-0.3,4.2-0.4,6.2h0.7c0.4-1.5,0.7-2.6,1.2-3.2
		c0.6-1,1.5-1.2,4.5-1.2h2.5v18.5c0,3-0.4,3.5-3.7,3.7v0.6h10.2V140c-3.4-0.2-3.8-0.7-3.8-3.7v-18.5h2.8c2.8,0,3.5,0.3,4.2,1.3
		c0.5,0.7,0.8,1.7,1.1,3.2l0.7-0.1c-0.2-2.1-0.3-4.6-0.4-6.2L376.8,116L376.8,116z"/>
	<path d="M392.8,127.3l-0.2-0.1c-3.1-1.6-4.8-3-4.8-5.7c0-2.1,1.3-4.2,4.3-4.2c3.2,0,4.3,2.3,5,4.9l0.7-0.1
		c-0.3-2.1-0.4-3.5-0.6-4.8c-1.3-0.4-2.8-0.8-4.5-0.8c-4.4,0-7.4,2.6-7.4,6.4c0,3.9,3.3,5.6,5.6,6.9l0.4,0.2
		c2.8,1.5,4.9,2.9,4.9,5.7c0,2.9-1.8,4.7-4.7,4.7c-4.2,0-5.8-4.3-6.2-6l-0.7,0.2c0.4,2.9,0.8,4.8,0.9,5.4l0,0
		c0.4,0.2,0.9,0.4,1.7,0.7c0.9,0.3,2.1,0.5,3.6,0.5c4.6,0,8-2.9,8-6.8C398.9,130.4,395.7,128.7,392.8,127.3z"/>
	<path d="M243.2,43.8c0-24.1-19.6-43.8-43.8-43.8c-24.1,0-43.8,19.6-43.8,43.8c0,24.1,19.6,43.8,43.8,43.8
		C223.6,87.6,243.2,67.9,243.2,43.8z M199.5,85.1c-22.8,0-41.3-18.5-41.3-41.3s18.5-41.3,41.3-41.3s41.3,18.5,41.3,41.3
		C240.7,66.6,222.2,85.1,199.5,85.1z"/>
</g>
</svg>
