<?xml version="1.0" encoding="utf-8"?>
<!-- Generator: Adobe Illustrator 21.0.2, SVG Export Plug-In . SVG Version: 6.00 Build 0)  -->
<svg version="1.1" id="Layer_1" xmlns="http://www.w3.org/2000/svg" xmlns:xlink="http://www.w3.org/1999/xlink" x="0px" y="0px"
	 viewBox="0 0 151 151" style="enable-background:new 0 0 151 151;" xml:space="preserve">
<g>
	<path d="M116.5,55.6c-4.3-3.1-10.6-4.6-19.3-4.6h-28v1.6c8.4,0.6,9.6,1.7,9.6,12.2v18.8c-0.4,2.5-2.1,8.4-9.9,8.4h-8.6
		c-8,0-9.6-6-9.9-8.5c0-0.9-0.1-1.9-0.1-3.1V16.5c-4,1.7-7.8,3.8-11.4,6.3c2.8,1.3,3.1,6.1,3.2,7.7V81c0,10.1-1.1,11.5-10.8,12.3
		v0.1v1.5l0,0h9.3h2.1h36.1v45.4c3.8-0.2,7.5-0.7,11.1-1.5c-2.5-1.4-2.9-5.4-3-7.2V94.9h10.5h0.2c1.2,0,2.7-0.1,4-0.3
		c10.7-1.3,22.1-8.1,22.1-23.1C123.6,64.5,121.2,59.2,116.5,55.6z M97.7,92.1h-4.1c-5.8,0-6.6-3.8-6.7-5.4v-26
		c0-3.2,0.3-5.2,1.6-6.2c0.9-1,3.6-1.6,7.1-1.6c9,0,18.5,5,18.5,18.9C114.1,86,105.7,91.6,97.7,92.1z"/>
	<path d="M75.5,0C33.9,0,0,33.9,0,75.5S33.9,151,75.5,151S151,117.1,151,75.5S117.1,0,75.5,0z M75.5,145.9
		c-38.8,0-70.4-31.6-70.4-70.4S36.7,5.1,75.5,5.1s70.4,31.6,70.4,70.4S114.3,145.9,75.5,145.9z"/>
</g>
</svg>
